# xmcd
#
# Track frame offsets:
#	150
#	18058
#	33297
#	54508
#	71802
#	86216
#	102511
#	127389
#	144895
#	159654
#	173608
#	188291
#	198001
#
# Disc length: 2785 seconds
#
# Revision: 1
# Processed by: cddbd v1.4PL0 Copyright (c) Steve Scherf et al.
# Submitted via: EasyCDDAExtractor 5.0.6
#
DISCID=a70adf0d
DTITLE=Jack Johnson - Brushfire Fairytales
DYEAR=2002
DGENRE=Blues
TTITLE0=Inaudible Melodies
TTITLE1=Middle Man
TTITLE2=Poster
TTITLE3=Sexy Plexi
TTITLE4=Flake
TTITLE5=Bubble Toes
TTITLE6=Fortunate Fool
TTITLE7=The News
TTITLE8=Drink the water
TTITLE9=Mudfootball (For Moe Lerner)
TTITLE10=F-Stop Blues
TTITLE11=Losing Hope
TTITLE12=It´s all understood
EXTD=
EXTT0=
EXTT1=
EXTT2=
EXTT3=
EXTT4=
EXTT5=
EXTT6=
EXTT7=
EXTT8=
EXTT9=
EXTT10=
EXTT11=
EXTT12=
PLAYORDER=
